<svg width="30.000000" height="22.474609" viewBox="0 0 30 22.4746" fill="none" xmlns="http://www.w3.org/2000/svg" xmlns:xlink="http://www.w3.org/1999/xlink">
	<desc>
			Created with Pixso.
	</desc>
	<defs/>
	<path id="Vector" d="M30 2.66C28.88 3.11 27.69 3.41 26.45 3.55C27.73 2.85 28.7 1.75 29.16 0.42C27.97 1.07 26.66 1.53 25.26 1.79C24.13 0.68 22.52 0 20.76 0C17.36 0 14.62 2.54 14.62 5.67C14.62 6.12 14.66 6.55 14.76 6.96C9.65 6.73 5.12 4.47 2.08 1.03C1.55 1.88 1.24 2.85 1.24 3.9C1.24 5.86 2.34 7.6 3.97 8.61C2.99 8.59 2.02 8.33 1.19 7.91C1.19 7.93 1.19 7.95 1.19 7.97C1.19 10.73 3.33 13.02 6.12 13.54C5.62 13.67 5.08 13.73 4.51 13.73C4.12 13.73 3.72 13.71 3.35 13.63C4.14 15.88 6.4 17.53 9.09 17.58C7 19.09 4.34 20 1.47 20C0.96 20 0.48 19.98 0 19.92C2.72 21.54 5.95 22.47 9.43 22.47C20.75 22.47 26.93 13.83 26.93 6.33C26.93 6.08 26.93 5.84 26.91 5.6C28.13 4.8 29.16 3.8 30 2.66Z" fill="#198C36" fill-opacity="1.000000" fill-rule="nonzero"/>
</svg>
