<svg width="30.000000" height="27.661133" viewBox="0 0 30 27.6611" fill="none" xmlns="http://www.w3.org/2000/svg" xmlns:xlink="http://www.w3.org/1999/xlink">
	<desc>
			Created with Pixso.
	</desc>
	<defs/>
	<path id="Vector" d="M25.6 0L4.39 0C1.97 0 0 1.81 0 4.05L0 23.6C0 25.84 1.97 27.66 4.39 27.66L25.6 27.66C28.02 27.66 30 25.84 30 23.6L30 4.05C30 1.81 28.02 0 25.6 0ZM10.6 21.93L7.08 21.93L7.08 10.58L10.6 10.58L10.6 21.93ZM10.6 8.96L7.08 8.96L7.08 5.72L10.6 5.72L10.6 8.96ZM22.91 21.93L19.39 21.93L19.39 15.45C19.39 14.55 18.6 13.83 17.63 13.83C16.66 13.83 15.87 14.55 15.87 15.45L15.87 21.93L12.36 21.93L12.36 10.58L15.87 10.58L15.87 11.2C16.79 10.93 17.39 10.58 18.51 10.58C20.89 10.59 22.91 12.56 22.91 14.89L22.91 21.93Z" fill="#198C36" fill-opacity="1.000000" fill-rule="nonzero"/>
</svg>
