<svg width="25.000000" height="25.000000" viewBox="0 0 25 25" fill="none" xmlns="http://www.w3.org/2000/svg" xmlns:xlink="http://www.w3.org/1999/xlink">
	<desc>
			Created with Pixso.
	</desc>
	<defs>
		<clipPath id="clip1_1459">
			<rect id="Frame" rx="-0.500000" width="24.000000" height="24.000000" transform="translate(0.500000 0.500000)" fill="white" fill-opacity="0"/>
		</clipPath>
	</defs>
	<g clip-path="url(#clip1_1459)">
		<path id="Vector" d="M21.33 0L3.66 0C1.64 0 0 1.64 0 3.66L0 21.33C0 23.35 1.64 25 3.66 25L21.33 25C23.35 25 25 23.35 25 21.33L25 3.66C25 1.64 23.35 0 21.33 0ZM12.54 19.04C8.91 19.04 5.95 16.08 5.95 12.45C5.95 8.81 8.91 5.85 12.54 5.85C16.18 5.85 19.14 8.81 19.14 12.45C19.14 16.08 16.18 19.04 12.54 19.04ZM19.87 7.32C18.66 7.32 17.67 6.33 17.67 5.12C17.67 3.91 18.66 2.92 19.87 2.92C21.08 2.92 22.07 3.91 22.07 5.12C22.07 6.33 21.08 7.32 19.87 7.32Z" fill="#198C36" fill-opacity="1.000000" fill-rule="nonzero"/>
		<path id="Vector" d="M19.87 4.39C19.46 4.39 19.14 4.72 19.14 5.12C19.14 5.53 19.46 5.85 19.87 5.85C20.27 5.85 20.6 5.53 20.6 5.12C20.6 4.72 20.27 4.39 19.87 4.39Z" fill="#198C36" fill-opacity="1.000000" fill-rule="nonzero"/>
		<path id="Vector" d="M12.54 7.32C9.72 7.32 7.42 9.62 7.42 12.45C7.42 15.27 9.72 17.57 12.54 17.57C15.37 17.57 17.67 15.27 17.67 12.45C17.67 9.62 15.37 7.32 12.54 7.32Z" fill="#198C36" fill-opacity="1.000000" fill-rule="nonzero"/>
	</g>
</svg>
