<svg width="110.000000" height="42.000000" viewBox="0 0 110 42" fill="none" xmlns="http://www.w3.org/2000/svg" xmlns:xlink="http://www.w3.org/1999/xlink">
	<desc>
			Created with Pixso.
	</desc>
	<defs>
		<clipPath id="clip1_1439">
			<rect id="Frame" rx="-0.500000" width="109.000000" height="41.000000" transform="translate(0.500000 0.500000)" fill="white" fill-opacity="0"/>
		</clipPath>
	</defs>
	<g clip-path="url(#clip1_1439)">
		<path id="Vector" d="M8.83 20.54C8.83 14.53 12.72 10.09 18.49 10.09C23.06 10.09 26.77 12.88 26.77 15.66C26.77 16.84 26 17.62 24.7 17.62C21.56 17.62 21.68 11.88 17.55 11.88C15.22 11.88 13.1 14.18 13.1 17.88C13.1 23.71 16.51 27.55 20.05 27.55C22.98 27.55 24.66 25.41 25.57 23.85C26.04 23.24 27.07 23.41 26.95 24.32C26.64 28.02 23.97 31.51 18.75 31.51C13.23 31.51 8.83 26.2 8.83 20.54Z" fill="#133A23" fill-opacity="1.000000" fill-rule="nonzero"/>
		<path id="Vector" d="M28.37 30.72L28.37 30.59C28.37 29.85 29.49 29.63 29.49 28.37L29.49 13.92C29.49 12.62 28.37 12.31 28.37 11.7L28.37 11.57C28.37 11.27 28.58 11.14 28.93 10.96L32.59 9.14C33.37 8.74 33.8 9.18 33.8 9.66L33.8 28.33C33.8 29.55 35.05 29.81 35.05 30.55L35.05 30.68C35.05 30.98 34.75 31.2 34.36 31.2L29.06 31.2C28.63 31.2 28.37 31.03 28.37 30.72Z" fill="#133A23" fill-opacity="1.000000" fill-rule="nonzero"/>
		<path id="Vector" d="M49.5 27.07C49.32 28.76 47.34 31.51 43.59 31.51C39.54 31.51 36.56 28.55 36.56 24.02C36.48 20.15 39.49 16.88 43.37 16.79C43.46 16.79 43.55 16.79 43.59 16.79C47.38 16.79 49.11 19.01 49.11 20.97C49.15 21.84 48.64 22.63 47.82 22.93L41.35 25.89C41.99 27.46 43.5 28.46 45.19 28.46C46.52 28.5 47.77 27.85 48.51 26.76C48.85 26.33 49.5 26.46 49.5 27.07ZM40.57 22.02C40.57 22.89 40.66 23.72 40.87 24.54L44.62 22.63C45.14 22.37 45.44 21.8 45.4 21.23C45.4 20.19 44.62 18.1 43.07 18.1C41.52 18.1 40.57 19.8 40.57 22.02Z" fill="#133A23" fill-opacity="1.000000" fill-rule="nonzero"/>
		<path id="Vector" d="M62.52 19.49C62.52 20.71 62.05 21.8 60.67 21.8C58.38 21.8 59.41 19.28 57.82 19.28C56.7 19.28 56.27 20.89 56.27 22.5L56.27 28.37C56.27 29.59 57.73 29.85 57.73 30.59L57.73 30.72C57.73 31.07 57.47 31.25 57.09 31.25L51.74 31.25C51.31 31.25 51.05 31.07 51.05 30.72L51.05 30.59C51.05 29.85 52.17 29.63 52.17 28.37L52.17 21.54C52.17 20.23 50.83 20.15 50.83 19.41L50.83 19.28C50.83 18.97 51.05 18.75 51.44 18.58L54.93 16.93C55.58 16.62 55.88 16.97 55.88 17.54L55.88 19.75C56.53 17.88 57.91 16.84 59.85 16.84C61.23 16.75 62.43 17.84 62.52 19.23C62.52 19.32 62.52 19.41 62.52 19.49Z" fill="#133A23" fill-opacity="1.000000" fill-rule="nonzero"/>
		<path id="Vector" d="M79.6 30.64L79.6 30.72C79.6 31.07 79.38 31.25 78.99 31.25L73.56 31.25C73.26 31.29 73 31.07 73 30.77L73 30.72L73 30.68C73 29.94 74.08 29.77 73.6 29.07L70.45 24.59L68.73 26.2L68.73 28.42C68.73 29.63 69.98 29.9 69.98 30.64L69.98 30.77C69.98 31.07 69.72 31.29 69.29 31.29L63.94 31.29C63.55 31.29 63.3 31.07 63.3 30.77L63.3 30.64C63.3 29.9 64.42 29.68 64.42 28.42L64.42 13.92C64.42 12.62 63.12 12.31 63.12 11.7L63.12 11.57C63.12 11.27 63.34 11.14 63.73 10.96L67.61 9.14C68.3 8.79 68.77 9.18 68.77 9.66L68.77 23.93L73.39 19.93C74.25 19.19 72.7 18.45 72.7 17.75L72.7 17.62C72.7 17.32 72.91 17.1 73.3 17.1L77.44 17.1C77.78 17.1 78.04 17.27 78.04 17.58L78.04 17.71C78.04 18.45 76.62 18.93 75.54 19.89L73.17 22.1L78.04 29.03C78.52 29.68 79.6 29.94 79.6 30.64Z" fill="#133A23" fill-opacity="1.000000" fill-rule="nonzero"/>
		<path id="Vector" d="M79.6 28.07C79.6 26.94 80.37 26.46 81.32 26.46C83.86 26.46 82.87 30.33 85.8 30.33C87.01 30.33 87.92 29.72 87.92 28.37C87.92 24.46 79.81 26.89 79.81 21.1C79.81 18.62 82.23 16.79 85.72 16.79C89.38 16.79 91.71 18.49 91.71 20.32C91.67 21.19 90.94 21.89 90.12 21.84C87.7 21.84 88.56 18.01 86.02 18.01C84.99 17.97 84.12 18.8 84.12 19.84C84.12 19.89 84.12 19.93 84.12 19.97C84.12 23.98 92.06 21.63 92.06 27.24C92.06 29.63 89.73 31.46 85.85 31.46C82.05 31.46 79.6 29.9 79.6 28.07Z" fill="#133A23" fill-opacity="1.000000" fill-rule="nonzero"/>
		<path id="Vector" d="M108.53 17.58L108.53 17.71C108.53 18.45 107.62 18.71 107.06 20.02L101.54 32.12C100.6 34.2 98.18 39.38 95.16 39.38C92.53 39.38 90.89 37.77 90.89 36.25C90.85 35.34 91.54 34.55 92.45 34.51C92.53 34.51 92.57 34.51 92.66 34.51C95.03 34.51 94.3 38.03 95.81 38.03C96.84 38.03 98.91 34.07 99.73 32.07L93.91 20.02C93.26 18.71 92.36 18.45 92.36 17.71L92.36 17.58C92.36 17.27 92.62 17.1 92.96 17.1L98.4 17.1C98.65 17.06 98.91 17.27 98.96 17.58L98.96 17.62L98.96 17.75C98.96 18.49 97.88 18.58 98.53 20.1L101.93 28.07L105.08 20.54C105.86 18.71 103.79 18.49 103.79 17.8L103.79 17.67C103.79 17.36 104 17.14 104.39 17.14L107.93 17.14C108.27 17.1 108.53 17.32 108.53 17.58Z" fill="#133A23" fill-opacity="1.000000" fill-rule="nonzero"/>
		<path id="Vector" d="M4.57 18.58C4.61 18.62 4.57 18.71 4.52 18.75C4.48 18.8 4.39 18.75 4.35 18.71C3.49 17.49 1.81 14.49 1.94 9.48C1.94 8 2.24 6.52 2.8 5.13C3.27 4 4.57 2.13 6.03 2.74C7.5 3.35 5.47 5.61 5.04 6.26C2.54 10.05 3.14 14.53 4.57 18.58Z" fill="#FDBC4E" fill-opacity="1.000000" fill-rule="nonzero"/>
		<path id="Vector" d="M5.38 16.27C5.38 16.32 5.34 16.32 5.3 16.32C5.26 16.32 5.26 16.27 5.26 16.27C5.08 14.49 5 10.57 6.64 7.13C7.41 5.44 8.62 3.96 10.13 2.87C10.69 2.48 11.34 2.26 12.03 2.26C12.84 2.35 13.49 3.09 13.1 3.91C12.5 5.17 10.86 5.35 9.83 6.13C8.49 7.13 7.54 8.66 6.89 10.18C6.12 12.09 5.6 14.18 5.38 16.27Z" fill="#FDBC4E" fill-opacity="1.000000" fill-rule="nonzero"/>
		<path id="Vector" d="M7.02 15.36C7.02 15.01 7.07 14.66 7.15 14.36C7.5 13.14 7.97 11.96 8.62 10.88C10.34 7.96 12.85 5.39 16.17 4.61C17.16 4.35 20.39 4.35 19.36 6.26C18.67 7.48 16.68 6.96 15.56 7.18C13.41 7.61 11.68 8.96 10.17 10.48C8.53 12.18 7.11 15.4 7.02 15.36Z" fill="#FDBC4E" fill-opacity="1.000000" fill-rule="nonzero"/>
	</g>
</svg>
